<svg xmlns="http://www.w3.org/2000/svg" width="24" height="24" viewBox="0 0 24 24" fill="none">
  <g opacity="0.33">
    <path d="M11.8001 12L8.3001 8.49998C8.0001 8.19998 7.8501 7.83331 7.8501 7.39998C7.8501 6.96664 8.0001 6.59998 8.3001 6.29998C8.6001 5.99998 8.96676 5.84998 9.4001 5.84998C9.83343 5.84998 10.2001 5.99998 10.5001 6.29998L15.0751 10.875C15.2251 11.025 15.3418 11.2 15.4251 11.4C15.5084 11.6 15.5501 11.8 15.5501 12C15.5501 12.2 15.5084 12.4 15.4251 12.6C15.3418 12.8 15.2251 12.975 15.0751 13.125L10.5001 17.7C10.2001 18 9.83343 18.15 9.4001 18.15C8.96676 18.15 8.6001 18 8.3001 17.7C8.0001 17.4 7.8501 17.0333 7.8501 16.6C7.8501 16.1666 8.0001 15.8 8.3001 15.5L11.8001 12Z" fill="black"/>
  </g>
</svg>