<svg viewBox="0 0 51 50" fill="black" xmlns="http://www.w3.org/2000/svg">
<path d="M51.0057 41.5583L35.9363 26.6639C36.04 25.3287 35.852 24.0227 35.3724 22.7458C34.8927 21.4689 34.1474 20.325 33.1363 19.3139C32.1511 18.3286 31.0201 17.5962 29.7432 17.1166C28.4663 16.637 27.1603 16.449 25.8252 16.5528L14.9168 5.66385L17.4446 2.63052C18.015 1.95642 18.7053 1.45086 19.5154 1.11385C20.3256 0.776801 21.1715 0.608276 22.0529 0.608276H29.9863C30.8418 0.608276 31.6747 0.776801 32.4849 1.11385C33.2951 1.45086 33.9854 1.95642 34.5557 2.63052L37.6668 6.26661H44.8613C46.5335 6.26661 47.9756 6.87263 49.1877 8.08468C50.3997 9.2967 51.0057 10.7388 51.0057 12.411V41.5583ZM26.0002 36.5999C26.9853 36.5999 27.9251 36.4703 28.8196 36.211C29.7141 35.9518 30.5372 35.5823 31.2891 35.1027L17.3863 21.1999C16.9067 21.9518 16.5372 22.7749 16.278 23.6694C16.0187 24.5638 15.8891 25.5036 15.8891 26.4889C15.8891 29.3277 16.8581 31.7226 18.796 33.6735C20.7339 35.6245 23.1353 36.5999 26.0002 36.5999ZM45.4835 49.2194L42.878 46.6333H7.13902C5.44089 46.6333 3.99878 46.0402 2.81267 44.8541C1.62656 43.668 1.0335 42.2259 1.0335 40.5278V12.411C1.0335 10.7129 1.62656 9.2643 2.81267 8.0652C3.99878 6.86614 5.44089 6.26661 7.13902 6.26661H9.04465V12.7999L0.89735 4.69155C0.456622 4.25082 0.229783 3.70963 0.216833 3.06796C0.203883 2.42629 0.430722 1.87213 0.89735 1.40546C1.36402 0.938794 1.91171 0.705461 2.54042 0.705461C3.16914 0.705461 3.71683 0.938794 4.1835 1.40546L48.7696 45.9916C49.2104 46.4583 49.4372 46.9962 49.4502 47.6055C49.4631 48.2148 49.2363 48.7527 48.7696 49.2194C48.3029 49.686 47.7553 49.9194 47.1266 49.9194C46.4979 49.9194 45.9502 49.686 45.4835 49.2194Z" />
</svg>
