<svg xmlns="http://www.w3.org/2000/svg" width="28" height="28" viewBox="0 0 28 28" fill="none">
<path d="M14.0001 15.8667L17.8667 19.7334C18.1112 19.9778 18.4223 20.1 18.8001 20.1C19.1779 20.1 19.489 19.9778 19.7334 19.7334C19.9779 19.4889 20.1001 19.1778 20.1001 18.8C20.1001 18.4222 19.9779 18.1111 19.7334 17.8667L15.8667 14L19.7334 10.1334C19.9779 9.88891 20.1001 9.5778 20.1001 9.20002C20.1001 8.82224 19.9779 8.51113 19.7334 8.26669C19.489 8.02224 19.1779 7.90002 18.8001 7.90002C18.4223 7.90002 18.1112 8.02224 17.8667 8.26669L14.0001 12.1334L10.1334 8.26669C9.88897 8.02224 9.57786 7.90002 9.20008 7.90002C8.8223 7.90002 8.51119 8.02224 8.26675 8.26669C8.0223 8.51113 7.90008 8.82224 7.90008 9.20002C7.90008 9.5778 8.0223 9.88891 8.26675 10.1334L12.1334 14L8.26675 17.8667C8.0223 18.1111 7.90008 18.4222 7.90008 18.8C7.90008 19.1778 8.0223 19.4889 8.26675 19.7334C8.51119 19.9778 8.8223 20.1 9.20008 20.1C9.57786 20.1 9.88897 19.9778 10.1334 19.7334L14.0001 15.8667ZM14.0001 27.3334C12.1556 27.3334 10.4223 26.9834 8.80008 26.2834C7.17786 25.5834 5.76675 24.6334 4.56675 23.4334C3.36675 22.2334 2.41675 20.8222 1.71675 19.2C1.01675 17.5778 0.666748 15.8445 0.666748 14C0.666748 12.1556 1.01675 10.4222 1.71675 8.80002C2.41675 7.1778 3.36675 5.76669 4.56675 4.56669C5.76675 3.36669 7.17786 2.41669 8.80008 1.71669C10.4223 1.01669 12.1556 0.666687 14.0001 0.666687C15.8445 0.666687 17.5779 1.01669 19.2001 1.71669C20.8223 2.41669 22.2334 3.36669 23.4334 4.56669C24.6334 5.76669 25.5834 7.1778 26.2834 8.80002C26.9834 10.4222 27.3334 12.1556 27.3334 14C27.3334 15.8445 26.9834 17.5778 26.2834 19.2C25.5834 20.8222 24.6334 22.2334 23.4334 23.4334C22.2334 24.6334 20.8223 25.5834 19.2001 26.2834C17.5779 26.9834 15.8445 27.3334 14.0001 27.3334Z" fill="black" fill-opacity="0.33"/>
</svg>